<mxfile host="app.diagrams.net" agent="Mozilla/5.0 (Windows NT 10.0; Win64; x64) AppleWebKit/537.36 (KHTML, like Gecko) Chrome/129.0.0.0 Safari/537.36" version="24.7.16">
  <diagram name="Halaman-1" id="xGKuckmx_Jhsz94jMClw">
    <mxGraphModel dx="866" dy="446" grid="1" gridSize="11" guides="1" tooltips="1" connect="1" arrows="1" fold="1" page="1" pageScale="1" pageWidth="413" pageHeight="291" math="0" shadow="0">
      <root>
        <mxCell id="0" />
        <mxCell id="1" parent="0" />
        <mxCell id="i4-XKmNArR5D6ufNM6wX-15" value="" style="edgeStyle=orthogonalEdgeStyle;rounded=0;orthogonalLoop=1;jettySize=auto;html=1;" edge="1" parent="1" source="i4-XKmNArR5D6ufNM6wX-1" target="i4-XKmNArR5D6ufNM6wX-2">
          <mxGeometry relative="1" as="geometry" />
        </mxCell>
        <mxCell id="i4-XKmNArR5D6ufNM6wX-1" value="mulai" style="ellipse;whiteSpace=wrap;html=1;" vertex="1" parent="1">
          <mxGeometry x="270" y="40" width="120" height="80" as="geometry" />
        </mxCell>
        <mxCell id="i4-XKmNArR5D6ufNM6wX-17" value="" style="edgeStyle=orthogonalEdgeStyle;rounded=0;orthogonalLoop=1;jettySize=auto;html=1;" edge="1" parent="1" source="i4-XKmNArR5D6ufNM6wX-2" target="i4-XKmNArR5D6ufNM6wX-3">
          <mxGeometry relative="1" as="geometry" />
        </mxCell>
        <mxCell id="i4-XKmNArR5D6ufNM6wX-2" value="&lt;div&gt;Selamat datang&lt;/div&gt;masukkan nama&lt;div&gt;masukkan nim&lt;/div&gt;" style="shape=parallelogram;perimeter=parallelogramPerimeter;whiteSpace=wrap;html=1;fixedSize=1;" vertex="1" parent="1">
          <mxGeometry x="270" y="150" width="120" height="60" as="geometry" />
        </mxCell>
        <mxCell id="i4-XKmNArR5D6ufNM6wX-18" value="" style="edgeStyle=orthogonalEdgeStyle;rounded=0;orthogonalLoop=1;jettySize=auto;html=1;" edge="1" parent="1" source="i4-XKmNArR5D6ufNM6wX-3" target="i4-XKmNArR5D6ufNM6wX-4">
          <mxGeometry relative="1" as="geometry" />
        </mxCell>
        <mxCell id="i4-XKmNArR5D6ufNM6wX-3" value="menampilkan biodata karyawan&amp;nbsp;" style="rounded=0;whiteSpace=wrap;html=1;" vertex="1" parent="1">
          <mxGeometry x="270" y="250" width="120" height="60" as="geometry" />
        </mxCell>
        <mxCell id="i4-XKmNArR5D6ufNM6wX-19" value="" style="edgeStyle=orthogonalEdgeStyle;rounded=0;orthogonalLoop=1;jettySize=auto;html=1;" edge="1" parent="1" source="i4-XKmNArR5D6ufNM6wX-4" target="i4-XKmNArR5D6ufNM6wX-5">
          <mxGeometry relative="1" as="geometry" />
        </mxCell>
        <mxCell id="i4-XKmNArR5D6ufNM6wX-4" value="input jam kerja&lt;div&gt;input tarif per jam&lt;/div&gt;" style="shape=parallelogram;perimeter=parallelogramPerimeter;whiteSpace=wrap;html=1;fixedSize=1;" vertex="1" parent="1">
          <mxGeometry x="270" y="360" width="120" height="60" as="geometry" />
        </mxCell>
        <mxCell id="i4-XKmNArR5D6ufNM6wX-21" value="ya" style="edgeStyle=orthogonalEdgeStyle;rounded=0;orthogonalLoop=1;jettySize=auto;html=1;entryX=0.5;entryY=0;entryDx=0;entryDy=0;" edge="1" parent="1" source="i4-XKmNArR5D6ufNM6wX-5" target="i4-XKmNArR5D6ufNM6wX-6">
          <mxGeometry relative="1" as="geometry">
            <mxPoint x="210" y="560" as="targetPoint" />
          </mxGeometry>
        </mxCell>
        <mxCell id="i4-XKmNArR5D6ufNM6wX-23" value="tidak" style="edgeStyle=orthogonalEdgeStyle;rounded=0;orthogonalLoop=1;jettySize=auto;html=1;entryX=0.6;entryY=0.017;entryDx=0;entryDy=0;entryPerimeter=0;" edge="1" parent="1" source="i4-XKmNArR5D6ufNM6wX-5" target="i4-XKmNArR5D6ufNM6wX-7">
          <mxGeometry relative="1" as="geometry">
            <mxPoint x="430" y="510" as="targetPoint" />
            <Array as="points">
              <mxPoint x="454" y="510" />
            </Array>
          </mxGeometry>
        </mxCell>
        <mxCell id="i4-XKmNArR5D6ufNM6wX-5" value="apakah jam kerja&amp;gt;160" style="rhombus;whiteSpace=wrap;html=1;" vertex="1" parent="1">
          <mxGeometry x="290" y="470" width="80" height="80" as="geometry" />
        </mxCell>
        <mxCell id="i4-XKmNArR5D6ufNM6wX-25" value="" style="edgeStyle=orthogonalEdgeStyle;rounded=0;orthogonalLoop=1;jettySize=auto;html=1;" edge="1" parent="1" source="i4-XKmNArR5D6ufNM6wX-6" target="i4-XKmNArR5D6ufNM6wX-9">
          <mxGeometry relative="1" as="geometry" />
        </mxCell>
        <mxCell id="i4-XKmNArR5D6ufNM6wX-6" value="mendapatkan bonus" style="shape=parallelogram;perimeter=parallelogramPerimeter;whiteSpace=wrap;html=1;fixedSize=1;" vertex="1" parent="1">
          <mxGeometry x="140" y="570" width="140" height="60" as="geometry" />
        </mxCell>
        <mxCell id="i4-XKmNArR5D6ufNM6wX-24" value="" style="edgeStyle=orthogonalEdgeStyle;rounded=0;orthogonalLoop=1;jettySize=auto;html=1;" edge="1" parent="1" source="i4-XKmNArR5D6ufNM6wX-7" target="i4-XKmNArR5D6ufNM6wX-8">
          <mxGeometry relative="1" as="geometry" />
        </mxCell>
        <mxCell id="i4-XKmNArR5D6ufNM6wX-7" value="tidak mendapatkan bonus" style="shape=parallelogram;perimeter=parallelogramPerimeter;whiteSpace=wrap;html=1;fixedSize=1;" vertex="1" parent="1">
          <mxGeometry x="352" y="567" width="170" height="60" as="geometry" />
        </mxCell>
        <mxCell id="i4-XKmNArR5D6ufNM6wX-30" value="" style="edgeStyle=orthogonalEdgeStyle;rounded=0;orthogonalLoop=1;jettySize=auto;html=1;entryX=1;entryY=0.5;entryDx=0;entryDy=0;" edge="1" parent="1" source="i4-XKmNArR5D6ufNM6wX-8" target="i4-XKmNArR5D6ufNM6wX-11">
          <mxGeometry relative="1" as="geometry">
            <mxPoint x="437" y="819" as="targetPoint" />
          </mxGeometry>
        </mxCell>
        <mxCell id="i4-XKmNArR5D6ufNM6wX-8" value="total gaji=gaji" style="shape=parallelogram;perimeter=parallelogramPerimeter;whiteSpace=wrap;html=1;fixedSize=1;" vertex="1" parent="1">
          <mxGeometry x="377" y="679" width="120" height="60" as="geometry" />
        </mxCell>
        <mxCell id="i4-XKmNArR5D6ufNM6wX-26" value="" style="edgeStyle=orthogonalEdgeStyle;rounded=0;orthogonalLoop=1;jettySize=auto;html=1;" edge="1" parent="1" source="i4-XKmNArR5D6ufNM6wX-9" target="i4-XKmNArR5D6ufNM6wX-10">
          <mxGeometry relative="1" as="geometry" />
        </mxCell>
        <mxCell id="i4-XKmNArR5D6ufNM6wX-9" value="bonus=total gaji*0.10" style="whiteSpace=wrap;html=1;aspect=fixed;" vertex="1" parent="1">
          <mxGeometry x="170" y="669" width="80" height="80" as="geometry" />
        </mxCell>
        <mxCell id="i4-XKmNArR5D6ufNM6wX-28" value="" style="edgeStyle=orthogonalEdgeStyle;rounded=0;orthogonalLoop=1;jettySize=auto;html=1;entryX=0.171;entryY=0.317;entryDx=0;entryDy=0;entryPerimeter=0;" edge="1" parent="1" source="i4-XKmNArR5D6ufNM6wX-10" target="i4-XKmNArR5D6ufNM6wX-11">
          <mxGeometry relative="1" as="geometry">
            <mxPoint x="250" y="890" as="targetPoint" />
            <Array as="points">
              <mxPoint x="210" y="888" />
            </Array>
          </mxGeometry>
        </mxCell>
        <mxCell id="i4-XKmNArR5D6ufNM6wX-10" value="total gaji=bonus+gaji" style="shape=parallelogram;perimeter=parallelogramPerimeter;whiteSpace=wrap;html=1;fixedSize=1;" vertex="1" parent="1">
          <mxGeometry x="140" y="780" width="140" height="60" as="geometry" />
        </mxCell>
        <mxCell id="i4-XKmNArR5D6ufNM6wX-31" value="tidak" style="edgeStyle=orthogonalEdgeStyle;rounded=0;orthogonalLoop=1;jettySize=auto;html=1;" edge="1" parent="1" source="i4-XKmNArR5D6ufNM6wX-11" target="i4-XKmNArR5D6ufNM6wX-12">
          <mxGeometry relative="1" as="geometry" />
        </mxCell>
        <mxCell id="i4-XKmNArR5D6ufNM6wX-36" value="" style="edgeStyle=orthogonalEdgeStyle;rounded=0;orthogonalLoop=1;jettySize=auto;html=1;entryX=0;entryY=0.25;entryDx=0;entryDy=0;" edge="1" parent="1" source="i4-XKmNArR5D6ufNM6wX-11" target="i4-XKmNArR5D6ufNM6wX-4">
          <mxGeometry relative="1" as="geometry">
            <mxPoint x="140" y="910" as="targetPoint" />
            <Array as="points">
              <mxPoint x="60" y="910" />
              <mxPoint x="60" y="379" />
            </Array>
          </mxGeometry>
        </mxCell>
        <mxCell id="i4-XKmNArR5D6ufNM6wX-37" value="ya" style="edgeLabel;html=1;align=center;verticalAlign=middle;resizable=0;points=[];" vertex="1" connectable="0" parent="i4-XKmNArR5D6ufNM6wX-36">
          <mxGeometry x="-0.8307" y="1" relative="1" as="geometry">
            <mxPoint as="offset" />
          </mxGeometry>
        </mxCell>
        <mxCell id="i4-XKmNArR5D6ufNM6wX-11" value="ingin menghitung gaji lagi?" style="rhombus;whiteSpace=wrap;html=1;" vertex="1" parent="1">
          <mxGeometry x="250" y="850" width="140" height="120" as="geometry" />
        </mxCell>
        <mxCell id="i4-XKmNArR5D6ufNM6wX-32" value="" style="edgeStyle=orthogonalEdgeStyle;rounded=0;orthogonalLoop=1;jettySize=auto;html=1;" edge="1" parent="1" source="i4-XKmNArR5D6ufNM6wX-12" target="i4-XKmNArR5D6ufNM6wX-13">
          <mxGeometry relative="1" as="geometry" />
        </mxCell>
        <mxCell id="i4-XKmNArR5D6ufNM6wX-12" value="silahkan keluar ruangan" style="shape=parallelogram;perimeter=parallelogramPerimeter;whiteSpace=wrap;html=1;fixedSize=1;" vertex="1" parent="1">
          <mxGeometry x="260" y="1030" width="120" height="60" as="geometry" />
        </mxCell>
        <mxCell id="i4-XKmNArR5D6ufNM6wX-13" value="selesai" style="ellipse;whiteSpace=wrap;html=1;" vertex="1" parent="1">
          <mxGeometry x="260" y="1130" width="120" height="80" as="geometry" />
        </mxCell>
      </root>
    </mxGraphModel>
  </diagram>
</mxfile>
